<?xml version="1.0" encoding="UTF-8"?>
<svg xmlns="http://www.w3.org/2000/svg" version="1.1" viewBox="0 0 56.6 56.6">
  <defs>
    <style>
      .cls-1 {
        fill: #ff2400;
      }
    </style>
  </defs>
  <!-- Generator: Adobe Illustrator 28.7.1, SVG Export Plug-In . SVG Version: 1.2.0 Build 142)  -->
  <g>
    <g id="Layer_1">
      <path class="cls-1" d="M28.3,0C12.7,0,0,12.7,0,28.3s12.7,28.3,28.3,28.3c15.6,0,28.3-12.7,28.3-28.3S43.9,0,28.3,0ZM14.7,41.9c-3.7-3.7-5.7-8.5-5.7-13.6,0-3.6,1-7.1,2.9-10.1l26.5,26.5c-3,1.9-6.5,2.9-10.1,2.9-5.1,0-10-2-13.6-5.7ZM47.6,28.3c0,3.6-1,7.1-2.9,10.1L18.2,11.9c3-1.9,6.5-2.9,10.1-2.9,10.6,0,19.3,8.7,19.3,19.3Z"/>
    </g>
  </g>
</svg>