<?xml version="1.0" encoding="utf-8"?>
<!-- Generator: Adobe Illustrator 26.0.2, SVG Export Plug-In . SVG Version: 6.00 Build 0)  -->
<svg version="1.1" id="Layer_1" xmlns="http://www.w3.org/2000/svg" xmlns:xlink="http://www.w3.org/1999/xlink" x="0px" y="0px"
	 viewBox="0 0 56.6 48.5" style="enable-background:new 0 0 56.6 48.5;" xml:space="preserve">
<style type="text/css">
	.st0{fill:#FFFFFF;}
	.st1{fill:#0D1C0C;}
	.st2{fill:#FF2400;}
</style>
<path class="st2" d="M42.3,0c2,0,3.8,0.4,5.6,1.1c1.7,0.8,3.2,1.8,4.5,3.1c1.3,1.3,2.3,2.8,3.1,4.5s1.1,3.6,1.1,5.6
	c0,1.9-0.4,3.7-1.1,5.5c-0.7,1.7-1.8,3.3-3.1,4.6L28.3,48.5L4.2,24.4c-1.3-1.3-2.4-2.9-3.1-4.6C0.4,18,0,16.2,0,14.3
	c0-2,0.4-3.8,1.1-5.6C1.9,7,2.9,5.5,4.2,4.2C5.5,2.9,7,1.9,8.7,1.1C10.5,0.4,12.3,0,14.3,0c1.5,0,2.9,0.2,4.1,0.6
	c1.2,0.4,2.3,0.9,3.3,1.6c1,0.7,2,1.4,2.9,2.3c0.9,0.9,1.9,1.8,2.8,2.8l0.8,0.8l0.9-0.9c1-1,1.9-1.9,2.8-2.8
	c0.9-0.9,1.9-1.6,2.9-2.3s2.1-1.2,3.3-1.5C39.4,0.2,40.7,0,42.3,0z"/>
</svg>
