<?xml version="1.0" encoding="utf-8"?>
<!-- Generator: Adobe Illustrator 26.0.2, SVG Export Plug-In . SVG Version: 6.00 Build 0)  -->
<svg version="1.1" id="Layer_1" xmlns="http://www.w3.org/2000/svg" xmlns:xlink="http://www.w3.org/1999/xlink" x="0px" y="0px"
	 viewBox="0 0 52.5 54.5" style="enable-background:new 0 0 52.5 54.5;" xml:space="preserve">
<style type="text/css">
	.st0{fill:#FFFFFF;}
	.st1{fill:#0D1C0C;}
	.st2{fill:#FF2400;}
</style>
<path class="st1" d="M26.3,0l22.1,22.1c1.3,1.3,2.4,2.9,3.1,4.6c0.7,1.7,1.1,3.6,1.1,5.5c0,2-0.4,3.8-1.1,5.6
	c-0.7,1.7-1.8,3.2-3.1,4.5c-1.3,1.3-2.8,2.3-4.5,3.1c-1.7,0.8-3.6,1.1-5.6,1.1c-1.9,0-3.7-0.4-5.4-1.1c-1.7-0.7-3.2-1.7-4.6-3v2
	c0,1.6,0.4,3.1,1.1,4.5s1.7,2.6,3,3.6v2H20.2v-2c1.2-1,2.2-2.2,3-3.6s1.1-2.9,1.1-4.5v-2c-1.3,1.3-2.9,2.3-4.6,3
	c-1.7,0.7-3.5,1.1-5.4,1.1c-1.3,0-2.6-0.2-3.8-0.5c-1.2-0.3-2.4-0.8-3.4-1.4c-1-0.6-2-1.4-2.9-2.2c-0.9-0.9-1.6-1.8-2.2-2.9
	c-0.6-1.1-1.1-2.2-1.4-3.4C0.2,34.8,0,33.5,0,32.2c0-1.9,0.4-3.7,1.1-5.5c0.7-1.7,1.8-3.3,3.1-4.6L26.3,0z"/>
</svg>
