<?xml version="1.0" encoding="utf-8"?>
<!-- Generator: Adobe Illustrator 26.0.2, SVG Export Plug-In . SVG Version: 6.00 Build 0)  -->
<svg version="1.1" id="Layer_1" xmlns="http://www.w3.org/2000/svg" xmlns:xlink="http://www.w3.org/1999/xlink" x="0px" y="0px"
	 viewBox="0 0 32.3 30" style="enable-background:new 0 0 32.3 30;" xml:space="preserve">
<style type="text/css">
	.st0{fill:#FFFFFF;}
	.st1{fill:#0D1C0C;}
	.st2{fill:#FF2400;}
</style>
<path class="st0" d="M18.4,20.8v-1.9c0,0,1.4-0.2,3.2-3.3c1.8-3.1,1.7-6.7,1.1-10.6c-0.6-3.9-3.4-5-6.6-5C13,0,10.2,1.1,9.6,5
	C9,8.8,8.8,12.4,10.7,15.5c1.8,3.1,3.2,3.3,3.2,3.3v1.9C7,21.3,0,25.1,0,30c6.3,0,16.1,0,16.1,0s9.8,0,16.1,0
	C32.3,25.1,25.3,21.3,18.4,20.8z"/>
</svg>
