<?xml version="1.0" encoding="utf-8"?>
<!-- Generator: Adobe Illustrator 26.0.2, SVG Export Plug-In . SVG Version: 6.00 Build 0)  -->
<svg version="1.1" id="Layer_1" xmlns="http://www.w3.org/2000/svg" xmlns:xlink="http://www.w3.org/1999/xlink" x="0px" y="0px"
	 viewBox="0 0 56.6 56.6" style="enable-background:new 0 0 56.6 56.6;" xml:space="preserve">
<style type="text/css">
	.st0{fill:#FFFFFF;}
	.st1{fill:#0D1C0C;}
	.st2{fill:#FF2400;}
</style>
<path class="st1" d="M41,20.3c0.5-0.1,1-0.1,1.5-0.1c1.9,0,3.7,0.4,5.5,1.1c1.7,0.8,3.2,1.8,4.5,3.1c1.3,1.3,2.3,2.8,3,4.5
	c0.7,1.7,1.1,3.5,1.1,5.4c0,2-0.4,3.8-1.1,5.5c-0.7,1.7-1.8,3.2-3,4.5c-1.3,1.3-2.8,2.3-4.5,3c-1.7,0.7-3.5,1.1-5.5,1.1
	c-1.2,0-2.4-0.2-3.6-0.5c-1.2-0.3-2.3-0.8-3.3-1.4c-1-0.6-2-1.3-2.9-2.2s-1.6-1.8-2.3-2.9c0,0.5,0,1,0,1.4c0,0.5,0,1,0,1.4
	c0,1.1,0,2.1,0.1,3c0.1,0.9,0.3,1.8,0.6,2.6c0.3,0.8,0.7,1.6,1.2,2.3c0.5,0.7,1.2,1.4,2.1,2.1v2H22.2v-2c0.9-0.7,1.6-1.4,2.1-2.1
	c0.5-0.7,1-1.5,1.3-2.2c0.3-0.8,0.5-1.6,0.6-2.5c0.1-0.9,0.1-1.9,0.1-3c0-0.5,0-1,0-1.5c0-0.5,0-1,0-1.5c-0.6,1.1-1.4,2-2.3,2.9
	s-1.8,1.6-2.9,2.2c-1.1,0.6-2.2,1-3.3,1.4c-1.2,0.3-2.4,0.5-3.6,0.5c-1.9,0-3.8-0.4-5.5-1.1c-1.7-0.7-3.2-1.7-4.5-3
	c-1.3-1.3-2.3-2.8-3-4.5C0.4,38.1,0,36.3,0,34.4c0-1.9,0.4-3.8,1.1-5.5c0.7-1.7,1.8-3.2,3-4.5c1.3-1.3,2.8-2.3,4.5-3
	s3.5-1.1,5.5-1.1H15c0.1,0,0.2,0,0.3,0s0.2,0,0.3,0.1c-0.5-1-0.8-1.9-1-3c-0.2-1-0.3-2.1-0.3-3.1c0-1.9,0.4-3.8,1.1-5.5
	c0.7-1.7,1.8-3.2,3-4.5c1.3-1.3,2.8-2.3,4.5-3C24.5,0.4,26.3,0,28.3,0c1.9,0,3.8,0.4,5.5,1.1s3.2,1.8,4.5,3c1.3,1.3,2.3,2.8,3,4.5
	c0.7,1.7,1.1,3.5,1.1,5.5C42.4,16.3,42,18.3,41,20.3z"/>
</svg>
